# xmcd CD database file
# Copyright (C) 1995-1998 Ti Kan
#
# Track frame offsets:
#	150
#	21714
#	44998
#	67126
#	96097
#	122493
#	145358
#	166011
#	191504
#	219214
#	246402
#	271134
#	295087
#
# Disc length: 4119 seconds
#
# Revision: 1
# Processed by: cddbd v1.4b42PL1 Copyright (c) Steve Scherf et al.
# Submitted via: CDex 1.30Release
#
DISCID=ca10150d
DTITLE=Johnnie Mae Dunson - Big Boss Lady
DYEAR=2000
DGENRE=Blues
TTITLE0=I'm Going Upside Your Head
TTITLE1=So Cold (Part 1)
TTITLE2=I'm a She Wolf
TTITLE3=Gamblin' Woman
TTITLE4=My Baby's Gone
TTITLE5=Big Boss Lady
TTITLE6=I'm a Whole Lotta Woman
TTITLE7=Trouble Just Won't Let Me Be
TTITLE8=Evil
TTITLE9=Blue Sky is My Blanket
TTITLE10=Blues Talking
TTITLE11=I'm Sad and Lonesome
TTITLE12=I Won
EXTD=YEAR: 2000 ID3G:   0
EXTT0=
EXTT1=
EXTT2=
EXTT3=
EXTT4=
EXTT5=
EXTT6=
EXTT7=
EXTT8=
EXTT9=
EXTT10=
EXTT11=
EXTT12=
PLAYORDER=
